<svg width="212" height="62" viewBox="0 0 212 62" fill="none" xmlns="http://www.w3.org/2000/svg">
<g clip-path="url(#clip0_10_2)">
<path d="M12.5 49.5H37.5V43.25H12.5V49.5ZM6.25 43.25H12.5V12H6.25V43.25ZM12.5 12H37.5V5.75H12.5V12ZM50 43.25V62H12.5V55.75H6.25V49.5H0V12H6.25V5.75H12.5V-0.5H43.75V5.75H50V24.5H31.25V37H43.75V43.25H50ZM62.5 49.5H81.25V43.25H62.5V49.5ZM56.25 43.25H62.5V12H56.25V43.25ZM81.25 43.25H87.5V12H81.25V43.25ZM62.5 12H81.25V5.75H62.5V12ZM100 12V55.75H93.75V62H62.5V55.75H56.25V49.5H50V12H56.25V5.75H62.5V-0.5H87.5V5.75H93.75V12H100ZM106.25 49.5H131.25V43.25H106.25V49.5ZM106.25 24.5H112.5V12H106.25V24.5ZM112.5 30.75H131.25V24.5H112.5V30.75ZM131.25 43.25H137.5V30.75H131.25V43.25ZM112.5 12H137.5V5.75H112.5V12ZM150 30.75V55.75H143.75V62H106.25V55.75H100V43.25H106.25V30.75H100V12H106.25V5.75H112.5V-0.5H143.75V5.75H150V24.5H143.75V30.75H150ZM181.25 30.75H187.5V24.5H168.75V30.75H175V49.5H181.25V30.75ZM162.5 24.5H168.75V18.25H162.5V24.5ZM156.25 18.25H162.5V5.75H156.25V18.25ZM187.5 24.5H193.75V18.25H187.5V24.5ZM193.75 18.25H200V5.75H193.75V18.25ZM212.5 5.75V24.5H206.25V30.75H200V37H193.75V62H175V55.75H168.75V37H162.5V30.75H156.25V24.5H150V5.75H156.25V-0.5H168.75V5.75H175V12H181.25V18.25H187.5V5.75H193.75V-0.5H206.25V5.75H212.5Z" fill="currentColor"/>
</g>
<defs>
<clipPath id="clip0_10_2">
<rect width="212" height="62" fill="currentColor"/>
</clipPath>
</defs>
</svg>
